<svg width="207" height="207" viewBox="0 0 207 207" fill="none" xmlns="http://www.w3.org/2000/svg">
<rect x="27.3025" y="76.1146" width="145.04" height="32.3497" rx="16.1748" transform="rotate(45 27.3025 76.1146)" stroke="#00A3FF" stroke-width="5"/>
<rect x="26.4102" y="149.002" width="43.3685" height="32.3497" rx="16.1748" transform="rotate(45 26.4102 149.002)" stroke="#00A3FF" stroke-width="5"/>
<mask id="path-3-inside-1_126_23" fill="white">
<path fill-rule="evenodd" clip-rule="evenodd" d="M167.341 65.3969L193.503 91.5586C201.015 99.0711 201.015 111.251 193.503 118.764C185.99 126.276 173.81 126.276 166.298 118.764L127.316 79.7818C124.739 77.2048 123.046 74.0785 122.237 70.7798C120.511 64.4667 122.16 57.4309 127.16 52.5176L167.282 13.0894C174.638 5.86032 186.462 5.96351 193.691 13.3198C200.92 20.6762 200.817 32.5 193.461 39.729L167.341 65.3969Z"/>
</mask>
<path d="M167.341 65.3969L163.836 61.8307L160.239 65.3659L163.805 68.9325L167.341 65.3969ZM166.298 118.764L169.833 115.228L169.833 115.228L166.298 118.764ZM127.316 79.7818L130.851 76.2463L130.851 76.2462L127.316 79.7818ZM122.237 70.7798L127.093 69.5889L127.077 69.5248L127.06 69.4612L122.237 70.7798ZM127.16 52.5176L130.664 56.0838L130.664 56.0838L127.16 52.5176ZM167.282 13.0894L163.778 9.52312L163.778 9.52312L167.282 13.0894ZM193.691 13.3198L197.258 9.8153L197.258 9.8153L193.691 13.3198ZM193.461 39.729L196.965 43.2953L196.965 43.2953L193.461 39.729ZM163.805 68.9325L189.967 95.0942L197.038 88.0231L170.877 61.8614L163.805 68.9325ZM189.967 95.0942C195.527 100.654 195.527 109.668 189.967 115.228L197.038 122.299C206.503 112.834 206.503 97.4882 197.038 88.0231L189.967 95.0942ZM189.967 115.228C184.407 120.788 175.393 120.788 169.833 115.228L162.762 122.299C172.227 131.764 187.573 131.764 197.038 122.299L189.967 115.228ZM169.833 115.228L130.851 76.2463L123.78 83.3173L162.762 122.299L169.833 115.228ZM130.851 76.2462C128.938 74.3334 127.69 72.0251 127.093 69.5889L117.381 71.9708C118.401 76.132 120.539 80.0761 123.78 83.3173L130.851 76.2462ZM127.06 69.4612C125.792 64.824 127.008 59.6771 130.664 56.0838L123.655 48.9513C117.312 55.1848 115.229 64.1094 117.414 72.0985L127.06 69.4612ZM130.664 56.0838L170.787 16.6556L163.778 9.52312L123.655 48.9513L130.664 56.0838ZM170.787 16.6556C176.173 11.3621 184.832 11.4376 190.125 16.8244L197.258 9.8153C188.093 0.489376 173.104 0.358565 163.778 9.52312L170.787 16.6556ZM190.125 16.8244C195.419 22.2111 195.343 30.8692 189.956 36.1628L196.965 43.2953C206.291 34.1307 206.422 19.1412 197.258 9.8153L190.125 16.8244ZM189.956 36.1628L163.836 61.8307L170.846 68.9632L196.965 43.2953L189.956 36.1628Z" fill="#00A3FF" mask="url(#path-3-inside-1_126_23)"/>
<rect x="27.7108" y="3.59254" width="247.696" height="32.1168" rx="16.0584" transform="rotate(45 27.7108 3.59254)" stroke="#00A3FF" stroke-width="5"/>
</svg>
