<svg width="207" height="207" viewBox="0 0 207 207" fill="none" xmlns="http://www.w3.org/2000/svg">
<rect x="27.3026" y="72.5791" width="150.04" height="37.3497" rx="18.6748" transform="rotate(45 27.3026 72.5791)" fill="white"/>
<rect x="26.4102" y="145.466" width="48.3685" height="37.3497" rx="18.6748" transform="rotate(45 26.4102 145.466)" fill="white"/>
<path d="M127.316 52.5767C134.828 45.0643 147.008 45.0643 154.521 52.5767L193.503 91.5587C201.015 99.0712 201.015 111.251 193.503 118.764C185.99 126.276 173.81 126.276 166.298 118.764L127.316 79.7818C119.803 72.2694 119.803 60.0892 127.316 52.5767Z" fill="white"/>
<path d="M126.929 78.9268C119.7 71.5704 119.803 59.7466 127.16 52.5176L167.282 13.0894C174.638 5.86032 186.462 5.96351 193.691 13.3198C200.92 20.6762 200.817 32.5 193.461 39.729L153.338 79.1572C145.982 86.3863 134.158 86.2831 126.929 78.9268Z" fill="white"/>
<rect x="27.7108" y="0.0570068" width="252.696" height="37.1168" rx="18.5584" transform="rotate(45 27.7108 0.0570068)" fill="white"/>
</svg>
